<svg xmlns="http://www.w3.org/2000/svg" width="60" height="40">
 <g>
  <title>Layer 1</title>
  <path fill="#ffffff" stroke="null" id="svg_5" fill-rule="evenodd" d="m26.077291,8.764099c1.2318,0 2.411701,0 3.622702,0c-0.286501,1.485471 -0.567701,2.944082 -0.856901,4.444023c0.9849,0 1.935101,-0.0332 2.881901,0.00925c0.959703,0.04296 1.936304,0.06632 2.870108,0.264791c1.9729,0.41947 2.803101,1.70113 2.449398,3.716928c-0.400997,2.285496 -0.865398,4.559895 -1.302399,6.839193c-0.077,0.4013 -0.140499,0.806101 -0.242001,1.2012c-0.026798,0.104601 -0.171101,0.254 -0.263298,0.2554c-1.137203,0.0175 -2.274605,0.011499 -3.460609,0.011499c0.213001,-1.1071 0.4174,-2.164099 0.619701,-3.221399c0.293503,-1.533899 0.605404,-3.064598 0.871304,-4.603195c0.1945,-1.125298 -0.240402,-1.683197 -1.387005,-1.733397c-1.166199,-0.051001 -2.3363,-0.0112 -3.569399,-0.0112c-0.616501,3.163895 -1.235001,6.337591 -1.8591,9.539791c-1.194799,0 -2.385401,0 -3.6234,0c1.084099,-5.576498 2.1637,-11.130272 3.248999,-16.712885z" clip-rule="evenodd"/>
  <path fill="#ffffff" stroke="null" id="svg_6" fill-rule="evenodd" d="m41.093498,29.396004c-1.230099,0 -2.4263,0 -3.655998,0c1.086102,-5.587898 2.167599,-11.15151 3.253502,-16.73834c0.121498,-0.009959 0.233799,-0.027219 0.346298,-0.027309c2.313599,-0.000869 4.627399,-0.01739 6.940701,0.01235c0.652401,0.008309 1.318001,0.09268 1.951801,0.24741c2.083698,0.50856 3.285797,1.828201 3.444298,3.957512c0.309101,4.155983 -2.471298,7.087479 -5.221199,7.759178c-0.7337,0.1793 -1.498501,0.2789 -2.253502,0.312799c-1.198498,0.053699 -2.400898,0.026899 -3.601498,0.0208c-0.247402,-0.001299 -0.353401,0.0625 -0.402,0.326601c-0.250801,1.365398 -0.527,2.726299 -0.802402,4.129zm1.374302,-7.049997c1.2659,-0.049198 2.452599,-0.0355 3.6255,-0.155899c1.571499,-0.1611 2.663601,-1.020298 3.105598,-2.561596c0.1991,-0.694399 0.330002,-1.426289 0.360901,-2.146687c0.050701,-1.18438 -0.4459,-1.861509 -1.617001,-2.022419c-1.338398,-0.18404 -2.7024,-0.18231 -4.084599,-0.263021c-0.469002,2.411778 -0.919701,4.729424 -1.3904,7.149621z" clip-rule="evenodd"/>
  <path fill="#ffffff" stroke="null" id="svg_7" fill-rule="evenodd" d="m10.155996,29.930672c-1.230091,0 -2.426302,0 -3.656002,0c1.08614,-5.587898 2.167591,-11.15151 3.253511,-16.738339c0.1215,-0.009959 0.23384,-0.027219 0.34626,-0.027309c2.31361,-0.000869 4.62743,-0.01739 6.940729,0.01235c0.652399,0.008309 1.317999,0.09268 1.951797,0.24741c2.0837,0.50856 3.285799,1.828201 3.4443,3.957511c0.309101,4.155983 -2.4713,7.087479 -5.221197,7.759178c-0.7337,0.1793 -1.498499,0.2789 -2.253499,0.312799c-1.1985,0.053699 -2.4009,0.026899 -3.60152,0.0208c-0.24736,-0.001299 -0.35343,0.0625 -0.40201,0.326601c-0.2508,1.365398 -0.527,2.726299 -0.80237,4.129zm1.37429,-7.049997c1.26591,-0.049198 2.45261,-0.0355 3.62551,-0.155899c1.571499,-0.1611 2.663597,-1.020298 3.105597,-2.561596c0.1991,-0.694399 0.33,-1.426289 0.360899,-2.146687c0.050701,-1.18438 -0.445898,-1.861509 -1.616997,-2.022418c-1.338399,-0.18404 -2.702398,-0.18231 -4.084599,-0.263021c-0.46896,2.411778 -0.91968,4.729424 -1.39041,7.149621z" clip-rule="evenodd"/>
 </g>
</svg>