<svg xmlns="http://www.w3.org/2000/svg" width="60" height="40">
 <g>
  <title>Angular</title>
  <polygon fill="#ffffff" stroke="null" id="svg_2" points="27.0519 21.7935 30.0594 21.7935 30.0594 21.7935 30.0594 21.7935 33.067 21.7935 30.0594 14.5576"/>
  <path fill="#ffffff" stroke="null" id="svg_3" d="m30.059441,3.471025l0,0l0,0l-15.882584,5.663821l2.422478,21.000496l13.460106,7.455086l0,0l0,0l13.460098,-7.455086l2.422482,-21.000496l-15.88258,-5.663821zm9.911686,26.033106l-3.701954,0l0,0l-1.995983,-4.981434l-4.213749,0l0,0l0,0l-4.213747,0l-1.995987,4.981434l0,0l-3.701954,0l0,0l9.911688,-22.262912l0,0l0,0l0,0l0,0l9.911686,22.262912l0,0z"/>
 </g>
</svg>