<svg xmlns="http://www.w3.org/2000/svg" width="60" height="40">
 <g>
  <title>Layer 1</title>
  <path fill="#ffffff" stroke="null" id="svg_1" d="m41.624454,2.000012l-23.498621,0a5.893381,5.893381 0 0 0 -5.875754,5.875755l0,23.498614c0,3.232002 2.643762,5.875759 5.875754,5.875759l23.498621,0c3.231995,0 5.875748,-2.643757 5.875748,-5.875759l0,-23.498614c0,-3.231996 -2.643753,-5.875755 -5.875748,-5.875755zm-3.212177,24.75661a4.560485,4.560485 0 0 1 -1.354923,1.813171c-0.616875,0.506718 -1.398987,0.909899 -2.361759,1.211723c-0.96056,0.297426 -2.101788,0.447239 -3.425873,0.447239l-9.447033,0l0,-20.56845l9.991219,0c1.846218,0 3.326725,0.418594 4.437103,1.266802c1.112579,0.848206 1.669971,2.119413 1.669971,3.83345c0,1.035473 -0.253357,1.921132 -0.760075,2.659184c-0.506725,0.727032 -1.233761,1.299843 -2.176701,1.696411l0,0.066095c1.255787,0.264376 2.225163,0.859222 2.864079,1.784536c0.638912,0.92532 0.969376,2.092976 0.969376,3.502979c0,0.793129 -0.154217,1.542194 -0.440628,2.247196l0.035244,0.039661zm-4.07579,-5.067207c-0.601452,-0.550787 -1.449661,-0.819565 -2.542416,-0.819565l-6.347225,0l0,6.415516l6.367062,0c1.090542,0 1.943153,-0.281994 2.542412,-0.852606c0.605854,-0.564005 0.909889,-1.370352 0.909889,-2.408028c-0.00441,-1.013437 -0.308437,-1.795549 -0.909889,-2.335318l-0.019833,0zm-0.881252,-4.148502c0.579426,-0.491302 0.865829,-1.198502 0.865829,-2.119414c0,-1.035473 -0.257763,-1.769117 -0.77771,-2.189915c-0.517731,-0.418594 -1.266796,-0.634501 -2.247192,-0.634501l-5.871347,0l0,5.675271l5.873552,0c0.863628,0 1.586258,-0.248955 2.159069,-0.731441l-0.002201,0z"/>
 </g>
</svg>