<svg xmlns="http://www.w3.org/2000/svg" width="60" height="40">
 <g>
  <title>Docker</title>
  <path stroke="null" fill="#ffffff" id="svg_4" fill-rule="nonzero" d="m19.610046,27.164034c-1.079079,0 -2.058771,-0.882666 -2.058771,-1.959383c0,-1.076714 0.882668,-1.959387 2.058771,-1.959387c1.17374,0 2.058777,0.882673 2.058777,1.959387c0,1.076717 -0.982059,1.959383 -2.058777,1.959383zm25.266136,-10.672495c-0.212975,-1.568933 -1.183212,-2.83969 -2.461067,-3.821749l-0.496948,-0.392822l-0.402287,0.489849c-0.780914,0.882666 -1.088551,2.449228 -0.993889,3.6206c0.094658,0.885036 0.378624,1.765343 0.875572,2.451599c-0.402298,0.196409 -0.899239,0.392828 -1.277863,0.586866c-0.899242,0.293434 -1.774807,0.392824 -2.650379,0.392824l-25.318189,0l-0.094655,0.586866c-0.189314,1.862366 0.094655,3.819384 0.887403,5.584726l0.392824,0.686256l0,0.094662c2.366406,3.918768 6.578616,5.679375 11.16944,5.679375c8.826702,0 16.067898,-3.817019 19.499195,-12.045019c2.248085,0.099394 4.519836,-0.489841 5.584721,-2.643276l0.283966,-0.489843l-0.473286,-0.293434c-1.277851,-0.780918 -3.028996,-0.882668 -4.496166,-0.489845l-0.028393,0.002365zm-12.636616,-1.568933l-3.831217,0l0,3.821752l3.833578,0l0,-3.824115l-0.002361,0.002363zm0,-4.799067l-3.831217,0l0,3.817016l3.833578,0l0,-3.81465l-0.002361,-0.002366zm0,-4.898465l-3.831217,0l0,3.817017l3.833578,0l0,-3.814648l-0.002361,-0.002369zm4.685486,9.697533l-3.807549,0l0,3.821752l3.819378,0l0,-3.824115l-0.011829,0.002363zm-14.198444,0l-3.807549,0l0,3.821752l3.819376,0l0,-3.824115l-0.011827,0.002363zm4.780146,0l-3.786255,0l0,3.821752l3.809917,0l0,-3.824115l-0.023663,0.002363zm-9.512957,0l-3.783889,0l0,3.821752l3.833583,0l0,-3.824115l-0.049694,0.002363zm9.512957,-4.799067l-3.786255,0l0,3.817016l3.809917,0l0,-3.81465l-0.023663,-0.002366zm-4.803808,0l-3.786253,0l0,3.817016l3.809916,0l0,-3.81465l-0.023663,-0.002366z"/>
  <g id="svg_5"/>
 </g>
</svg>