<svg xmlns="http://www.w3.org/2000/svg" width="60" height="40">
 <g>
  <title>GitHub</title>
  <path stroke="null" class="fil0" d="m29.998825,2.807232c-9.097546,0 -16.474143,7.376646 -16.474143,16.476593c0,7.278889 4.719161,13.454792 11.268218,15.633389c0.82394,0.150932 1.083145,-0.337849 1.083145,-0.774319c0,-0.391502 0.008217,-1.4846 0,-2.860634c-4.582348,0.996727 -5.532099,-2.169519 -5.532099,-2.169519c-0.748568,-1.904207 -1.827877,-2.410192 -1.827877,-2.410192c-1.49579,-1.021851 0.112074,-1.002878 0.112074,-1.002878c1.653069,0.116829 2.524565,1.698898 2.524565,1.698898c1.469709,2.515579 3.855305,1.789398 4.793425,1.36902c0.150265,-1.065088 0.576885,-1.791464 1.047512,-2.202858c-3.658253,-0.41634 -7.504572,-1.829319 -7.504572,-8.142748c0,-1.799681 0.641733,-3.269677 1.695482,-4.420657c-0.169954,-0.416627 -0.736366,-2.092179 0.161697,-4.361377c0,0 1.383049,-0.442571 4.529793,1.690201c1.314068,-0.365469 2.724312,-0.547774 4.124893,-0.554113c1.399956,0.006339 2.809185,0.188644 4.12479,0.554113c3.146172,-2.131907 4.528355,-1.690201 4.528355,-1.690201c0.897148,2.269197 0.33194,3.94475 0.162849,4.361377c1.053944,1.15098 1.694092,2.620976 1.694092,4.420657c0,6.330292 -3.852566,7.722326 -7.523979,8.128723c0.591534,0.510014 1.128738,1.498625 1.128738,3.03554c0,2.060091 0,4.019444 0,4.560539c0,0.440506 0.265408,0.928375 1.102173,0.768364c6.541992,-2.182442 11.257458,-8.354452 11.257458,-15.631325c0,-9.099947 -7.376648,-16.476593 -16.476589,-16.476593zm0.001148,-1.501126c9.948872,0 18.014034,8.065168 18.014034,18.014082c0,9.948864 -8.065163,18.014032 -18.014034,18.014032c-9.948862,0 -18.013983,-8.065168 -18.013983,-18.014032c0,-9.948914 8.065121,-18.014082 18.013983,-18.014082z" id="svg_1" fill="#ffffff"/>
 </g>
</svg>