<svg xmlns="http://www.w3.org/2000/svg" width="79.99999999999999" height="88">
    <g>
        <title>Layer 1</title>
        <path id="svg_5" fill="#ffffff" d="m29.536871,58.256393l1.700003,-1l-1.900002,0.5c-2.800001,0.799999 -3.199997,1.699997 -3.199997,2.400002c0.199997,1.799992 4.799999,3.199997 10.099998,3.199997c2.800003,0 6.900002,-0.400005 11.099998,-2.199997l0.599998,-0.200008l-0.599998,-0.199993c-1.900002,-0.800007 -3.400002,-1.599998 -3.400002,-1.599998l-0.099998,-0.099998l-0.099998,0c-3.400002,0.599998 -5.5,0.89999 -7.700001,0.89999c-1.399998,0 -2.899998,-0.099995 -5,-0.299992c-1.899998,-0.200005 -2.099998,-0.599998 -2.099998,-0.700008c0,-0.299992 0.299999,-0.599995 0.599997,-0.699993z"/>
        <path id="svg_6" fill="#ffffff" d="m49.236874,54.356392l-0.699997,-0.299995c-1.5,-0.500004 -2.400002,-1.500004 -2.5,-1.500004l-0.100006,-0.100002l-0.099998,0c-4.099998,0.800003 -7.299999,1.100002 -10.5,1.100002c-1.799999,0 -3.599998,-0.100002 -6,-0.399998c-1.599998,-0.200008 -2,-0.600002 -2,-0.800003c-0.099998,-0.400005 0.5,-1 0.700001,-1.199997l1.200001,-0.900002l-1.5,0.5c-2.5,0.799999 -3.700001,1.699997 -3.5,2.699997c0.299997,1.700005 4.700001,2.800003 10.799999,2.800003c4.500004,0 9.299999,-0.700001 13.399998,-1.900002l0.800003,0z"/>
        <path id="svg_7" fill="#ffffff" d="m37.736874,31.75639c-0.799999,2.5 0,5.299999 2.5,8.100002c0.800003,0.900002 1.199997,1.900002 1.099998,2.900002c-0.199997,1.900002 -1.799995,3.300003 -1.799995,3.300003l-1.800003,1.499996l2.099998,-1.100002c0.200005,-0.099998 4.300003,-2.199997 5,-5.400002c0.300003,-1.299995 0,-2.599998 -0.799995,-3.799995l-0.400002,-0.600002c-1.300003,-1.900002 -2.400002,-3.300003 -2,-5c0.5,-2.300003 3.599998,-4.900002 10.099998,-8.700001l1.5,-0.900002l-1.699997,0.400002c-0.600006,0.200001 -11.900002,3 -13.800003,9.299999z"/>
        <path id="svg_8" fill="#ffffff" d="m34.636875,69.356392c13.299995,0 22.699997,-2.5 23.199997,-4.900002c0.099998,-0.399994 -0.099998,-1.099998 -1.299995,-1.699997l-1.700005,-0.800007l1.400002,1.200008c0,0 0.400002,0.299995 0.300003,0.699997c-0.100006,0.300003 -0.400002,0.900002 -2.200005,1.400002c-3.5,1.199997 -11.5,2 -19.399998,2c-7.400003,0 -13.100002,-0.599998 -15.600002,-1.700005c-0.299999,-0.099998 -0.5,-0.299995 -0.5,-0.399994c0.100002,-0.5 2.200001,-1.400002 3.699999,-1.700005c1,-0.199997 1.600004,-0.199997 1.900003,-0.199997c0.099997,0 0.099997,0 0.099997,0l0.900003,0.099998l-0.700001,-0.699997c-0.400002,-0.300003 -1,-0.400002 -1.799999,-0.400002c-2.900002,0 -8.400002,2 -8.600003,3.800003c-0.099998,0.899986 1,1.599998 3.300004,1.899986c5.699997,0.900009 11.399998,1.400009 17,1.400009l0,0z"/>
        <path id="svg_9" fill="#ffffff" d="m32.136875,49.856392c6.099998,0 11.799995,-0.599998 15.900002,-1.699997l0.099998,0c1.199997,-0.800003 2.799995,-1.5 2.799995,-1.5l2,-0.900002l-2.199997,0.5c0,0 -4.699997,0.800003 -9.300003,1.199997c-3.199997,0.300003 -6.599998,0.400002 -9.499996,0.400002c-2.200001,0 -4.100002,-0.099998 -5.299999,-0.299999c-2.200001,-0.299999 -2.200001,-0.700001 -2.200001,-0.700001c0,-0.599998 3.200001,-1.699997 6.200001,-2.5l1.599998,-0.400002l-1.599998,-0.099998c0,0 -0.200001,0 -0.400002,0c-1.400002,0 -5.099998,0.199997 -9.400002,2.300003c-0.399998,0.199997 -1.399998,0.699997 -1.300001,1.399998c0.200003,1.799999 6.900003,2.299999 12.600004,2.299999z"/>
        <path id="svg_10" fill="#ffffff" d="m51.736874,44.656395l-0.400002,0.699997l0.700005,-0.300003c0,0 0.399994,-0.199997 1.299995,-0.299995c0.200005,0 0.400002,-0.099998 0.700005,-0.099998c1.399994,0 3.099998,0.899998 3.5,2.599998c0.299995,1.199997 0.199997,4.400002 -6.800003,8l-0.099998,0l0,0.099998c0,0.099998 -0.099998,0.200001 -0.200005,0.200001l-0.799995,0.700001l1,-0.300007c7.900002,-2.099995 10.400002,-5.799992 10,-8.599995c-0.300003,-2.400002 -2.5,-4.099998 -5.300003,-4.099998c-0.799995,0 -1.599998,0.099998 -2.400002,0.400002c-0.799995,0.399994 -1.199997,1 -1.199997,1z"/>
        <path id="svg_11" fill="#ffffff" d="m37.436874,44.256393l0.899998,0.799995l-0.5,-1.099998c-0.5,-1.199997 -1.399998,-2.400002 -2.199997,-3.5c-2.700001,-3.900002 -5.5,-7.799999 2.099998,-13.799999c5,-3.900002 7.599998,-7.800003 7.800003,-11.5c0.199997,-3.300001 -1.600006,-5.100001 -1.700005,-5.200001l-0.599998,-0.700001l0.199997,0.900001c1.700005,6.699998 -2.899994,10.3 -7.399998,13.8c-2.200001,1.799999 -4.500002,3.599998 -6,5.700001c-3,4.599998 1.799999,9.500004 7.400002,14.600002z"/>
        <path id="svg_12" fill="#ffffff" d="m60.136875,66.056396c0,0 -1,1.899986 -9,3.399994c-4.599998,0.900002 -10,1.300003 -15.600002,1.300003c-4.599998,0 -9.099998,-0.300003 -12.5,-0.900002l-0.899998,-0.199997l0.799999,0.599998c0.200001,0.099998 1.799999,1.199997 8.899998,1.699997c2,0.100006 4.200001,0.200005 6.300003,0.200005l0,0c10.699997,0 22.299995,-1.599998 22.599998,-6.099998l0.099998,-1.400002l-0.699997,1.400002z"/>
    </g>
</svg>