<svg id="Capa_1" width="40px"; data-name="Capa 1" xmlns="http://www.w3.org/2000/svg" viewBox="0 0 14.5 16.01"><title>Jenkins</title><path d="M18.9,16h-.65v-.13a10.27,10.27,0,0,1-.46-1.44c-.1-.66.52-.69.92-1,.61-.44,1.09-.68,1.75-1.08a4,4,0,0,0,.85-.55c.09-.25-.32-.63-.32-.8a2.63,2.63,0,0,1-.25-1,1.87,1.87,0,0,1-1.23-.79,3,3,0,0,1-.35-2.62c0-.07.17-.2.19-.31a3.45,3.45,0,0,0-.08-.7c0-1.13.19-2.1,1-2.44.21-1.23,1.31-1.64,2.35-2.25A7.63,7.63,0,0,1,23.88.37a6.27,6.27,0,0,1,5.33.52,7.19,7.19,0,0,1,1.77,2c.84,1.7.78,4.55.19,6.62a6.63,6.63,0,0,1-.35,1c-.11.23-.46.7-.42.91s.79.78,1,.93.84.65.88,1A3.56,3.56,0,0,1,32,14.58c-.15.48-.29,1-.44,1.42H18.9Zm7.4-2.36a5.19,5.19,0,0,0-1.38-.5c-.58-.11-.52.79-.5,1.33a4.18,4.18,0,0,0,.34,1.16c.05.13.06.27.17.3a2.82,2.82,0,0,0,1-.32A12.4,12.4,0,0,0,27,14.83v-.34a1.75,1.75,0,0,0-.73-.19,7,7,0,0,0,.69-.22v-.13a1.37,1.37,0,0,1-.68-.29Zm5,2a11.28,11.28,0,0,0,.31-1.17,3.49,3.49,0,0,0,.12-.78c0-.31-.46-.53-.67-.72-.39-.35-.63-.65-1-1-.17.25-.52.41-.65.61,1-.46,1.14,1.75.76,2.46.06.22.26.3.34.49l-.06.11h.85Zm-4.42,0-.1-.14-.2.13h.3Zm1.85,0v-.4c-.35,0-.55-.32-.8-.35s-.4.24-.68.13a1.9,1.9,0,0,1-.19.21,3,3,0,0,1,.28.39h.54a.2.2,0,0,1,.2-.19.18.18,0,0,1,.19.17h.44Zm1.41,0A.87.87,0,0,0,29,15.23v.36h1.14Zm-5.67,0-.07-.23a6.22,6.22,0,0,1-.27-1.12,11.92,11.92,0,0,1-1.77-.95c-.1-.07-.74-.9-.82-.87a13.46,13.46,0,0,0-3.21,2c.17.37.32.76.46,1.16h5.68ZM30,14.19A2,2,0,0,0,29.67,13c-.44-.26-1.23.52-1.56.63a1.21,1.21,0,0,1,.1.32,1,1,0,0,1,.6.06,1.28,1.28,0,0,0-.55.11,1.73,1.73,0,0,0,0,.51,6.78,6.78,0,0,0,1.59.22,1.25,1.25,0,0,0,.14-.72Zm-2.72-.24a1.82,1.82,0,0,0,.08.63c.84.26.69-1.16-.09-.64ZM22.83,13c-.3.3.85.72,1.21.74,0-.19.11-.38.09-.52A3.92,3.92,0,0,1,22.83,13Zm3.71.14h0a1.54,1.54,0,0,0,1.2.34c.24-.17.45-.37.69-.54-.57.05-1.29.4-1.85.15ZM28.82,1.33c-1.07-.6-2.9-1.06-4-.49A5.57,5.57,0,0,0,22.17,3c.4,1-.11,1.82-.18,2.77,0,.51.24.95.26,1.49-.13.22-.55.25-.84.24-.1-.49-.27-1-.77-1.09A1.16,1.16,0,0,0,19.42,7.5v0c0,.72.56,1.91,1.39,1.83.33,0,.41-.36.76-.36.19.38-.3.5-.35.77a2.43,2.43,0,0,0,.07.47,6.58,6.58,0,0,0,.83,1.92,2.71,2.71,0,0,0,2.15.76c.16-.35.75-.32,1.14-.23a3.88,3.88,0,0,1-1.25-1,2.56,2.56,0,0,1-.84-1.52,5.52,5.52,0,0,0,2.8,2.47,3.75,3.75,0,0,0,3.11-.74,3.65,3.65,0,0,0,.78-1A8.15,8.15,0,0,0,31.23,6a5.42,5.42,0,0,0-.29-2c-.26-.52-1.13-1-1.65-.52-.1-.51.42-.82,1-.64a5.74,5.74,0,0,0-1.51-1.59ZM26,9.94c.41,1,1.82.91,3,.88a.65.65,0,0,1-.31.34,3,3,0,0,1-2,0,2.7,2.7,0,0,1-.73-.82c-.09-.11-.53-.4,0-.41Zm.11-.58a5.89,5.89,0,0,0,2.49.32,2.74,2.74,0,0,1,0,.61c-1,.05-2.26-.2-2.53-.93ZM30.6,9a2,2,0,0,1-1.69,1.28,2.62,2.62,0,0,1,0-.6A4.92,4.92,0,0,0,30.61,9Zm-.43-.44a3.75,3.75,0,0,1-2.55.81.76.76,0,0,1-.09-1c.12.21,0,.59.38.65.63.11,1.36-.39,1.82-.56.28-.47,0-.65-.28-1a3.8,3.8,0,0,1-1.2-2.34c.21-.15.23.23.26.3a8.55,8.55,0,0,0,1.45,2c.12.14.32.26.34.35.06.26-.17.57-.14.74Zm-9-.45c-.18-.17-.18-.7-.47-.72s-.29.7-.29,1.12a1.3,1.3,0,0,1-.11-1.26c-.2-.1-.3.11-.41.19.1-1.06,1.56-.44,1.32.64ZM20.13,4c-.46.5-.36,1.45-.31,2.13a1.23,1.23,0,0,1,1.92.93c.4,0,.15-.5.08-.81-.24-1,.39-2.12,0-3.06A2.55,2.55,0,0,0,20.13,4Zm6.08.74a4,4,0,0,0,.56,1c.13.13.38.28.26.64a.85.85,0,0,1-.37.3c-.45.13-1.5,0-1.15-.54.37,0,.88.24,1.15,0-.21-.35-.59-1-.45-1.42Zm4.13,0h0A10.52,10.52,0,0,0,31.06,6c-.18.42-1.37.79-1.35,0,.26-.11.7,0,.93-.17a2.63,2.63,0,0,1-.29-1.18ZM25.73,3.66a1.43,1.43,0,0,0-1.74,1c-.26-.06-.15-.41-.09-.59a1.61,1.61,0,0,1,1.41-1c.24,0,.57.26.38.56ZM23.42,1.07a4.64,4.64,0,0,0-2.8,2c.33,0,.56-.21.89-.23a2,2,0,0,0,.43,0c.28-.07.52-.71.73-.94s.46-.33.63-.54.27,0,.28-.22S23.47,1,23.42,1Z" transform="translate(-17.78)" style="fill:#fff"/></svg>