<svg xmlns="http://www.w3.org/2000/svg" width="80" height="50">
    <g>
    <title>Data Structures</title>
    <path stroke="null" id="svg_1" fill="#ffffff" d="m40,4.775219c-8.52475,0 -17.696686,2.569811 -17.696686,8.216318l0,24.016932c0,5.643974 9.171936,8.216312 17.696686,8.216312c8.523479,0 17.696686,-2.572338 17.696686,-8.216312l0,-24.016932c0,-5.646507 -9.174469,-8.216318 -17.696686,-8.216318zm15.168587,32.23325c0,3.139896 -6.791737,5.688213 -15.168587,5.688213c-8.37812,0 -15.168591,-2.548317 -15.168591,-5.688213l0,-4.722488c2.611526,2.691162 8.911549,4.090462 15.168591,4.090462c6.257042,0 12.55706,-1.3993 15.168587,-4.090462l0,4.722488zm0,-7.584295l-0.005058,0c0,0.012642 0.005058,0.026546 0.005058,0.039186c0,3.120934 -6.791737,5.649033 -15.168587,5.649033c-8.376854,0 -15.168591,-2.528099 -15.168591,-5.649033c0,-0.01264 0.005058,-0.026545 0.005058,-0.039186l-0.005058,0l0,-4.722486c2.611526,2.69116 8.911549,4.090462 15.168591,4.090462c6.257042,0 12.55706,-1.399302 15.168587,-4.090462l0,4.722486zm0,-7.584291l-0.005058,0c0,0.01264 0.005058,0.026545 0.005058,0.039183c0,3.120939 -6.791737,5.649036 -15.168587,5.649036c-8.376854,0 -15.168591,-2.528097 -15.168591,-5.649036c0,-0.012638 0.005058,-0.026543 0.005058,-0.039183l-0.005058,0l0,-4.343273c3.313072,2.524305 9.385567,3.711246 15.168591,3.711246c5.783024,0 11.855515,-1.186941 15.168587,-3.711246l0,4.343273zm-15.168587,-3.160124c-8.37812,0 -15.168591,-2.548323 -15.168591,-5.688221c0,-3.142426 6.79047,-5.68822 15.168591,-5.68822c8.37685,0 15.168587,2.545794 15.168587,5.68822c0,3.139898 -6.791737,5.688221 -15.168587,5.688221z"/>
    <circle id="svg_2" r="1" fill="#ffffff" cy="38.037923" cx="49.170633"/>
    <circle id="svg_3" r="1" fill="#ffffff" cy="30.616121" cx="49.170633"/>
    <circle id="svg_4" r="1" fill="#ffffff" cy="23.668253" cx="49.170633"/>
    </g>
</svg>