<svg xmlns="http://www.w3.org/2000/svg" width="60" height="40">
 <g>
  <title>Jira</title>
  <path fill="#ffffff" stroke="null" id="svg_1" d="m43.073692,8.957778c-0.127899,-0.10618 -0.275105,-0.144791 -0.446438,-0.144791c-0.084461,0 -0.168922,0.016891 -0.255798,0.03861c-1.568569,0.596057 -3.144379,1.061801 -4.614006,1.382754c-0.296822,0.062743 -0.530899,0.296821 -0.637081,0.555033c-1.061802,2.888579 -3.759739,5.651674 -6.587992,8.542665c-0.10618,0.108595 -0.275099,0.255798 -0.530897,0.255798c-0.253384,0 -0.424723,-0.127897 -0.530899,-0.253384c-2.828251,-2.895821 -5.52619,-5.634782 -6.592817,-8.547495c-0.10618,-0.255797 -0.337847,-0.489875 -0.637079,-0.555032c-1.443085,-0.337846 -3.040611,-0.806002 -4.60918,-1.399646c-0.089287,-0.043436 -0.17375,-0.043436 -0.258209,-0.043436c-0.14962,0 -0.318542,0.041022 -0.44644,0.144791c-0.193056,0.15203 -0.299234,0.41024 -0.277517,0.641906c0.236492,2.401116 1.189697,4.76121 2.91271,7.227483c1.616835,2.316656 3.721128,4.464388 5.762684,6.546965c3.740433,3.827309 7.287813,7.439844 7.608763,11.626719c0.024136,0.386108 0.342674,0.68293 0.723957,0.68293l4.401646,0c0.188229,0 0.378868,-0.084461 0.530903,-0.231667c0.125481,-0.149616 0.212357,-0.342674 0.193054,-0.530899c-0.152035,-2.808945 -1.194527,-5.613064 -3.233665,-8.590933c-0.427135,-0.615362 -0.873573,-1.230724 -1.361034,-1.82678c-0.193058,-0.236492 -0.106182,-0.530901 0.041023,-0.699821l0.446438,-0.451267c2.041553,-2.080162 4.145847,-4.230309 5.76268,-6.546965c1.7206,-2.461445 2.678635,-4.802234 2.912712,-7.227482c0.019306,-0.193054 -0.086876,-0.446439 -0.277515,-0.596057zm-17.816532,17.669326c-0.106178,-0.108593 -0.253384,-0.217186 -0.506767,-0.217186c-0.320953,0 -0.530899,0.23649 -0.598469,0.34267c-1.848499,2.828253 -2.806534,5.485167 -2.932016,8.163801c0,0.193054 0.062742,0.405415 0.193052,0.530899c0.125486,0.14962 0.313713,0.234077 0.530903,0.234077l4.399229,0c0.38611,0 0.699827,-0.296822 0.723955,-0.680515c0.103769,-1.295879 0.487465,-2.572456 1.230724,-3.933491c0.255798,-0.465744 0.065155,-0.917007 -0.084459,-1.105236c-0.743261,-0.955624 -1.616835,-1.954679 -2.956152,-3.337433l0,0.002413z"/>
  <path fill="#ffffff" stroke="null" id="svg_2" d="m32.800842,6.302963c0.380508,0 0.741997,0.279713 0.741997,0.685904c0,0.107021 -0.027176,0.194582 -0.070663,0.27728c-0.217438,0.491321 -1.152412,2.269319 -2.900049,3.79436c-0.190254,0.17026 -0.43487,0.189718 -0.576202,0.189718c-0.135897,0 -0.380512,-0.024323 -0.570768,-0.194583c-1.747637,-1.520176 -2.682608,-3.298174 -2.900045,-3.794359c-0.021744,-0.060808 -0.067947,-0.145937 -0.067947,-0.274848c0,-0.389164 0.358768,-0.685904 0.739281,-0.685904c0.358768,0 1.269279,0.08513 2.82666,0.08513s2.465174,-0.08513 2.777739,-0.08513l0,0.002432z"/>
  <path fill="#ffffff" stroke="null" id="svg_3" d="m23.6924,2.255938c-1.035484,0 -1.882698,0.847215 -1.882698,1.882699c0,1.039407 0.847214,1.882699 1.882698,1.882699s1.8827,-0.843293 1.8827,-1.882699c-0.019611,-1.035484 -0.847216,-1.882699 -1.8827,-1.882699zm12.335604,0c-1.035484,0 -1.882694,0.847215 -1.882694,1.882699c0,1.039407 0.84721,1.882699 1.882694,1.882699c1.039406,0 1.882698,-0.843293 1.882698,-1.882699c0,-1.035484 -0.843292,-1.882699 -1.882698,-1.882699zm-6.167803,-1.710118c-1.039406,0 -1.882696,0.843292 -1.882696,1.882699s0.84329,1.882699 1.882696,1.882699s1.882698,-0.843293 1.882698,-1.882699c0,-1.053135 -0.843288,-1.882699 -1.882698,-1.882699z"/>
 </g>
</svg>