<svg xmlns="http://www.w3.org/2000/svg" width="40" height="40">
    <g>
    <title>MongoDb</title>
    <g id="svg_5"/>
        <g transform="matrix(0.032532 0 0 0.032532 6.50145 19.4258)" id="svg_9">
            <path fill="#ffffff" id="svg_10" d="m392.55014,-128.747406c-0.400024,-93.799973 -1.300049,-284.600006 -6.5,-367.899994c-1.599976,1.800018 -2.900024,3.399994 -4.699951,5.399994c-30.800049,24.100006 -189.200073,156.800018 -201.900055,426.400002c-10.300018,213.800026 128.399994,354.10006 186.299957,403.200035c14.300049,-61.700012 32.600098,-221.199997 27.700073,-382.200031c-0.700073,-11.799988 -0.700073,-42.399998 -0.900024,-84.900005z"/>
            <path fill="#ffffff" id="svg_11" d="m411.950165,343.952606c-2.900024,13.200012 -6.300049,25.900024 -9.800049,34l-5.099976,10.099976c8.300049,40.700012 7.099976,86.200043 7.099976,86.200043l27.5,9.200012c0,0 -5.599976,-72.600006 2.199951,-107.700043c0.400024,-1.599976 0.700073,-2.899963 1.100098,-4.5c-7.599976,-6.999939 -17.599976,-18.099976 -23,-27.299988z"/>
            <path fill="#ffffff" id="svg_12" d="m629.750122,-135.447372c-54.100037,-237.500015 -181.399933,-315.400009 -195.000031,-345.100021c-0.399902,-0.399994 -0.900024,-1.100006 -1.099976,-1.799988c3.099976,61.200012 4.900024,169.600006 5.800049,353.400009l0,0.399994c0.199951,40.199982 0.199951,72.199978 0.699951,83.100002c3.099976,106.10001 -3.400024,200.399998 -9.400024,260.700031c0.700073,59.399963 21.700073,111.200012 34,120c4.900024,-4 10.700073,-8.900024 17,-14.700012c0.700073,-0.400024 1.099976,-0.700012 1.099976,-0.700012c0,-0.200012 0,-0.200012 0,-0.399963c64.700043,-59.500061 188.900055,-209.400009 146.900055,-454.90004z"/>
        </g>
        <g id="svg_13"/>
    </g>
</svg>