<svg xmlns="http://www.w3.org/2000/svg" width="60" height="40">
    <g>
        <title>.NET</title>
        <path fill="#ffffff" stroke="null" id="svg_7" d="m6.141802,24.326397c0,-1.290148 0.882729,-2.308683 2.10497,-2.308683s2.10498,0.950634 2.10498,2.308683c0,1.290144 -0.882737,2.24078 -2.10498,2.24078s-2.10497,-0.950636 -2.10497,-2.24078z"/>
        <path fill="#ffffff" stroke="null" id="svg_8" d="m12.781909,8.550111l4.031022,0l4.478912,8.733888l1.716921,3.881725l0.074648,0c-0.149296,-1.866217 -0.447893,-4.329622 -0.447893,-6.419781l0,-6.195832l3.732431,0l0,17.617064l-3.956375,0l-4.478914,-8.733881l-1.716917,-3.807081l-0.07465,0c0.149298,1.940864 0.447889,4.254971 0.447889,6.345131l0,6.195831l-3.732425,0l0,-17.617064l-0.07465,0z"/>
        <path fill="#ffffff" stroke="null" id="svg_9" d="m28.592545,8.371934l10.843052,0l0,3.388451l-6.927502,0l0,3.539049l5.948616,0l0,3.313151l-5.948616,0l0,4.066141l7.228699,0l0,3.388451l-11.144249,0l0,-17.695243z"/>
        <path fill="#ffffff" stroke="null" id="svg_10" d="m46.070564,11.738789l-4.759102,0l0,-3.399359l13.521893,0l0,3.399359l-4.759102,0l0,14.428387l-3.928146,0l0,-14.428387l-0.075542,0z"/>
    </g>
</svg>