<svg width="80" height="50" xmlns="http://www.w3.org/2000/svg">
<!-- 
 <g>
  <title>background</title>
  <rect fill="none" id="canvas_background" height="42" width="62" y="-1" x="-1"/>
 </g> -->
    <g>
        <title>NodeJs</title>
        <path stroke="null" id="svg_5" fill="#ffffff" d="m39.994784,48.916945c-0.64089,0 -1.277309,-0.16693 -1.837716,-0.491846l-5.852968,-3.462298c-0.873399,-0.488865 -0.447133,-0.661756 -0.159477,-0.763107c1.165526,-0.40391 1.402506,-0.497808 2.645535,-1.204278c0.129668,-0.073032 0.301069,-0.044713 0.435209,0.03279l4.496665,2.669383c0.162458,0.090917 0.393477,0.090917 0.542521,0l17.529094,-10.117124c0.162458,-0.093898 0.26828,-0.280203 0.26828,-0.473961l0,-20.228286c0,-0.198229 -0.104331,-0.383044 -0.272751,-0.482903l-17.521642,-10.108181c-0.160968,-0.093898 -0.377082,-0.093898 -0.53954,0l-17.517171,10.111162c-0.16991,0.096879 -0.277222,0.287655 -0.277222,0.479922l0,20.228286c0,0.193758 0.107312,0.377082 0.275732,0.467999l4.802206,2.773714c2.605293,1.302647 4.200067,-0.231019 4.200067,-1.772136l0,-19.97193c0,-0.281694 0.226547,-0.50526 0.509731,-0.50526l2.22225,0c0.277222,0 0.508241,0.222076 0.508241,0.50526l0,19.97193c0,3.477202 -1.892862,5.471414 -5.189721,5.471414c-1.013501,0 -1.810888,0 -4.037609,-1.096966l-4.596525,-2.645535c-1.135717,-0.655795 -1.837716,-1.883919 -1.837716,-3.19849l0,-20.228286c0,-1.31457 0.703489,-2.541204 1.837716,-3.195509l17.529094,-10.129047c1.108889,-0.627476 2.582937,-0.627476 3.684374,0l17.527604,10.129047c1.135717,0.655795 1.840696,1.880938 1.840696,3.195509l0,20.228286c0,1.31457 -0.70647,2.536733 -1.840696,3.19849l-17.527604,10.120105c-0.561897,0.324916 -1.196825,0.491846 -1.846658,0.491846z"/>
        <path stroke="null" id="svg_6" fill="#ffffff" d="m46.038629,36.020136c-7.881564,0 -9.53415,-3.617616 -9.53415,-6.653229c0,-0.287939 0.23127,-0.519209 0.520741,-0.519209l2.328017,0c0.26037,0 0.476325,0.186854 0.517678,0.441098c0.350734,2.370902 1.399874,3.567074 6.166183,3.567074c3.795281,0 5.409577,-0.859222 5.409577,-2.871732c0,-1.160946 -0.457946,-2.021699 -6.354568,-2.599109c-4.928658,-0.487046 -7.976523,-1.576007 -7.976523,-5.519852c0,-3.634464 3.063181,-5.801664 8.200135,-5.801664c5.771033,0 8.625917,2.00332 8.987372,6.299431c0.013784,0.148564 -0.03829,0.289471 -0.137843,0.401277c-0.098022,0.102617 -0.235865,0.165412 -0.381366,0.165412l-2.337207,0c-0.241991,0 -0.456414,-0.171538 -0.505425,-0.407403c-0.560562,-2.494961 -1.925209,-3.291388 -5.625531,-3.291388c-4.142952,0 -4.625403,1.442758 -4.625403,2.524061c0,1.30951 0.56822,1.690876 6.161588,2.432166c5.535168,0.7321 8.164908,1.767455 8.164908,5.657695c0.001532,3.926998 -3.269945,6.175372 -8.978183,6.175372z"/>
    </g>
</svg>