<svg xmlns="http://www.w3.org/2000/svg" width="60" height="40" clip-rule="evenodd">
 <g>
  <title>Sass</title>
  <path fill="#ffffff" stroke="null" id="svg_1" d="m30,2.630953c8.933903,0 16.177288,7.24338 16.177288,16.177286s-7.243385,16.177284 -16.177288,16.177284s-16.177288,-7.243376 -16.177288,-16.177284s7.243382,-16.177286 16.177288,-16.177286zm-3.215235,21.566347c0.236591,0.86953 0.2103,1.68244 -0.032356,2.416481l-0.088974,0.242657c-0.032358,0.080889 -0.068754,0.161777 -0.105154,0.236597c-0.188061,0.390278 -0.43881,0.754265 -0.748199,1.091969c-0.940306,1.023211 -2.252687,1.411465 -2.81687,1.083874c-0.606647,-0.351852 -0.303324,-1.799723 0.788641,-2.952353c1.172857,-1.237562 2.857311,-2.034294 2.857311,-2.034294l0,-0.004042l0.145601,-0.080889zm13.362432,-14.640444c-0.732018,-2.875514 -5.496231,-3.821886 -10.005648,-2.218312c-2.683407,0.95446 -5.587231,2.450858 -7.676123,4.404265c-2.483215,2.321443 -2.879557,4.343603 -2.717785,5.188866c0.576317,2.980667 4.661083,4.930031 6.341496,6.375877l0,0.008083c-0.495428,0.242661 -4.119143,2.062605 -4.968451,3.943213c-0.909969,1.981722 0.141556,3.397236 0.829086,3.579226c2.123272,0.586432 4.307207,-0.485319 5.480059,-2.224375c1.132408,-1.698614 1.031301,-3.882549 0.545986,-4.954292c0.667311,-0.181995 1.455954,-0.262884 2.467031,-0.141554c2.831026,0.323549 3.39723,2.103048 3.275904,2.831028c-0.12133,0.727978 -0.707756,1.152626 -0.909973,1.273958c-0.202217,0.121328 -0.262886,0.161774 -0.242657,0.242662c0.020218,0.121328 0.121326,0.121328 0.2831,0.101107c0.222439,-0.040445 1.476177,-0.606653 1.536839,-1.981718c0.060669,-1.739059 -1.597504,-3.680332 -4.549856,-3.639891c-1.213301,0.020224 -1.981722,0.121328 -2.527702,0.343767c-0.040445,-0.060667 -0.080889,-0.101107 -0.141552,-0.141552c-1.819948,-1.961496 -5.196957,-3.336563 -5.055405,-5.945152c0.040443,-0.950415 0.384212,-3.457894 6.470915,-6.491134c4.99474,-2.48726 8.978401,-1.799726 9.665936,-0.283104c0.990852,2.163713 -2.123276,6.187814 -7.320229,6.774238c-1.981716,0.222439 -3.013018,-0.545984 -3.275898,-0.829087c-0.283106,-0.303324 -0.323545,-0.323545 -0.424656,-0.262878c-0.161774,0.080884 -0.060663,0.343768 0,0.505542c0.161774,0.404428 0.788643,1.112186 1.88061,1.476175c0.950417,0.303324 3.275904,0.485319 6.066484,-0.606649c3.134354,-1.213295 5.581161,-4.590304 4.873413,-7.42133l0.099075,0.093022z"/>
 </g>
</svg>