<svg xmlns="http://www.w3.org/2000/svg" width="60" height="40">
 <g>
  <title>TypeScript</title>
  <path stroke="null" id="svg_1" d="m7.938132,14.362646l-3.012249,0l0,9.330723l-1.223532,0l0,-9.330723l-3.006037,0l0,-1.107599l7.241818,0l0,1.107599zm4.753345,1.877737l-3.42837,8.645464c-0.610731,1.542353 -1.469894,2.314566 -2.577491,2.314566c-0.310543,0 -0.569326,-0.031055 -0.778423,-0.09523l0,-1.070335c0.256713,0.086954 0.492725,0.130428 0.705964,0.130428c0.602449,0 1.053768,-0.358156 1.353958,-1.076542l0.596238,-1.41193l-2.910803,-7.43642l1.324976,0l2.016447,5.734657c0.024843,0.07246 0.07453,0.262924 0.153197,0.567253l0.043478,0c0.024843,-0.115931 0.072459,-0.300188 0.144918,-0.552759l2.11789,-5.749151l1.23802,0zm1.952272,6.376446l-0.028983,0l0,4.504911l-1.194551,0l0,-10.881357l1.194551,0l0,1.310484l0.028983,0c0.587959,-0.98959 1.445051,-1.484386 2.57749,-1.484386c0.960608,0 1.710047,0.333315 2.248318,0.999941c0.538269,0.666632 0.807411,1.560987 0.807411,2.683079c0,1.2463 -0.302261,2.246244 -0.908855,2.995682c-0.606588,0.749439 -1.436768,1.124159 -2.488468,1.124159c-0.966819,-0.002066 -1.712116,-0.418192 -2.235895,-1.252512zm-0.028983,-3.006041l0,1.041349c0,0.61694 0.200814,1.138649 0.600377,1.569265s0.90885,0.643858 1.525793,0.643858c0.722528,0 1.289782,-0.277418 1.699699,-0.830181c0.409912,-0.552765 0.614866,-1.322908 0.614866,-2.306286c0,-0.830179 -0.192535,-1.480247 -0.575537,-1.950197c-0.382999,-0.469952 -0.902639,-0.705963 -1.556845,-0.705963c-0.693544,0 -1.25252,0.242222 -1.67485,0.724594c-0.422337,0.480307 -0.633504,1.084824 -0.633504,1.81356zm12.904014,0.654209l-5.262634,0c0.018631,0.830175 0.242222,1.469893 0.668699,1.921211c0.426476,0.451321 1.014433,0.676983 1.761801,0.676983c0.838463,0 1.610678,-0.27742 2.314569,-0.830185l0,1.120022c-0.654209,0.47616 -1.521652,0.714247 -2.598196,0.714247c-1.053768,0 -1.879808,-0.337458 -2.48226,-1.014437c-0.602448,-0.676979 -0.902636,-1.629307 -0.902636,-2.856979c0,-1.159351 0.32917,-2.105469 0.985449,-2.834204c0.658346,-0.730808 1.474033,-1.095175 2.449135,-1.095175s1.728678,0.31468 2.262812,0.946115c0.534128,0.631433 0.801193,1.50716 0.801193,2.627176l0,0.625225l0.002068,0zm-1.223528,-1.012365c-0.004141,-0.689402 -0.171833,-1.225603 -0.49894,-1.608603c-0.327101,-0.383003 -0.782562,-0.575535 -1.364311,-0.575535c-0.56311,0 -1.041344,0.200815 -1.434698,0.604519c-0.393351,0.4037 -0.635574,0.929554 -0.728739,1.579618l4.026688,0zm2.266949,4.018402l0,-1.440912c0.151131,0.144918 0.331244,0.277418 0.54241,0.393354c0.211172,0.115931 0.432686,0.215307 0.666628,0.293976s0.467884,0.142851 0.701824,0.186323c0.236012,0.043478 0.453394,0.066254 0.652134,0.066254c0.687334,0 1.202826,-0.138708 1.542349,-0.418198c0.339535,-0.279486 0.5093,-0.681122 0.5093,-1.204897c0,-0.281559 -0.055901,-0.525852 -0.169765,-0.734951c-0.11388,-0.209097 -0.269138,-0.399561 -0.469952,-0.571394s-0.436832,-0.337454 -0.710102,-0.494797c-0.273277,-0.157339 -0.567257,-0.322964 -0.881941,-0.498934c-0.333317,-0.184256 -0.643856,-0.370583 -0.931623,-0.561045c-0.287767,-0.188396 -0.540342,-0.397491 -0.751509,-0.625221c-0.213242,-0.227732 -0.38093,-0.486515 -0.503075,-0.774284c-0.122149,-0.287767 -0.18219,-0.627295 -0.18219,-1.014434c0,-0.476163 0.095236,-0.888146 0.285702,-1.240096c0.190464,-0.351946 0.440966,-0.641782 0.753578,-0.869513c0.310543,-0.227731 0.664558,-0.397494 1.062056,-0.509289c0.39749,-0.111794 0.803259,-0.16769 1.215248,-0.16769c0.941967,0 1.627228,0.124214 2.057842,0.370579l0,1.37466c-0.563099,-0.426477 -1.287701,-0.639714 -2.171709,-0.639714c-0.244293,0 -0.488588,0.028984 -0.732876,0.08281c-0.244297,0.055901 -0.461676,0.146989 -0.652136,0.273275c-0.190464,0.126287 -0.345737,0.287769 -0.465816,0.488585c-0.120073,0.198749 -0.180111,0.440969 -0.180111,0.728739c0,0.267063 0.045544,0.496866 0.136639,0.691471c0.091087,0.194605 0.225658,0.370577 0.403704,0.532059c0.178045,0.159414 0.393353,0.314682 0.650063,0.465815c0.254646,0.151129 0.548622,0.314678 0.881939,0.494795c0.341593,0.184254 0.66662,0.378859 0.973024,0.581745s0.575531,0.428547 0.805336,0.676981c0.229805,0.248432 0.414066,0.521708 0.548622,0.821896c0.134567,0.300192 0.202885,0.645926 0.202885,1.033072c0,0.513428 -0.093147,0.950254 -0.275341,1.306341c-0.184261,0.356087 -0.43269,0.64592 -0.745296,0.869514c-0.312614,0.223587 -0.67284,0.385071 -1.082752,0.484442c-0.407848,0.099377 -0.838459,0.149061 -1.291849,0.149061c-0.151133,0 -0.33746,-0.012423 -0.558973,-0.039337s-0.449253,-0.066248 -0.679056,-0.115932c-0.231869,-0.051758 -0.449247,-0.113865 -0.656273,-0.188396c-0.209099,-0.080742 -0.37265,-0.165623 -0.498936,-0.256712zm12.142157,0.080738c-0.573471,0.343664 -1.252522,0.517569 -2.037159,0.517569c-1.062042,0 -1.921204,-0.345734 -2.573349,-1.037205s-0.979233,-1.587902 -0.979233,-2.689287c0,-1.227671 0.351933,-2.213123 1.055843,-2.95842c0.703884,-0.745298 1.641712,-1.117949 2.817631,-1.117949c0.654205,0 1.231812,0.122147 1.732834,0.364367l0,1.223534c-0.552776,-0.389214 -1.144875,-0.581747 -1.776302,-0.581747c-0.76186,0 -1.387085,0.273275 -1.873604,0.819828s-0.730804,1.262867 -0.730804,2.151016c0,0.873653 0.229801,1.563055 0.687325,2.06613s1.074474,0.757721 1.844612,0.757721c0.650066,0 1.260815,-0.215307 1.834274,-0.647995l0,1.132439l-0.002068,0zm4.618782,-5.904419c-0.209099,-0.15941 -0.509296,-0.240152 -0.902645,-0.240152c-0.509293,0 -0.93578,0.240152 -1.277359,0.720457s-0.513424,1.13451 -0.513424,1.964689l0,3.798954l-1.194546,0l0,-7.45299l1.194546,0l0,1.536144l0.028984,0c0.169754,-0.523777 0.428532,-0.933691 0.778419,-1.225601c0.349873,-0.293982 0.739094,-0.440971 1.171772,-0.440971c0.310535,0 0.548626,0.033127 0.714252,0.101446l0,1.238024zm1.37051,-3.099203c-0.21323,0 -0.395416,-0.072458 -0.546543,-0.217377s-0.22567,-0.329174 -0.22567,-0.552763c0,-0.223589 0.07452,-0.407845 0.22567,-0.556904c0.151127,-0.14699 0.333313,-0.221519 0.546543,-0.221519c0.217384,0 0.403725,0.07453 0.5569,0.221519c0.15321,0.149059 0.229801,0.333315 0.229801,0.556904c0,0.213239 -0.076591,0.395422 -0.229801,0.546553c-0.153175,0.146988 -0.339516,0.223587 -0.5569,0.223587zm0.581753,9.345219l-1.194553,0l0,-7.452986l1.194553,0l0,7.452986zm1.925362,-1.07654l-0.029003,0l0,4.504911l-1.194527,0l0,-10.881357l1.194527,0l0,1.310484l0.029003,0c0.587963,-0.98959 1.445049,-1.484386 2.577484,-1.484386c0.960598,0 1.710041,0.333315 2.248333,0.999941c0.538258,0.666632 0.8074,1.560987 0.8074,2.683079c0,1.2463 -0.302277,2.246244 -0.908855,2.995682s-1.436783,1.124159 -2.488476,1.124159c-0.966812,-0.002066 -1.712112,-0.418192 -2.235886,-1.252512zm-0.029003,-3.006041l0,1.041349c0,0.61694 0.200821,1.138649 0.600399,1.569265s0.908836,0.643858 1.52578,0.643858c0.72253,0 1.289791,-0.277418 1.699707,-0.830181s0.614864,-1.322908 0.614864,-2.306286c0,-0.830179 -0.192535,-1.480247 -0.575531,-1.950197c-0.382999,-0.469952 -0.902653,-0.705963 -1.556854,-0.705963c-0.693546,0 -1.252522,0.242222 -1.674839,0.724594c-0.422348,0.480307 -0.633526,1.084824 -0.633526,1.81356zm10.131924,4.01012c-0.281551,0.155272 -0.652122,0.231873 -1.113811,0.231873c-1.30426,0 -1.958462,-0.728737 -1.958462,-2.184139l0,-4.409683l-1.281513,0l0,-1.018576l1.281513,0l0,-1.819772l1.194538,-0.38507l0,2.204842l1.877735,0l0,1.018576l-1.877735,0l0,4.198513c0,0.498936 0.084873,0.857094 0.254642,1.070335s0.451336,0.320889 0.844677,0.320889c0.300194,0 0.561043,-0.082808 0.778416,-0.248432l0,1.020645z" fill="#ffffff"/>
 </g>
</svg>